<svg width="460" height="110" viewBox="0 0 460 110" xmlns="http://www.w3.org/2000/svg" role="img" aria-label="RAC — Rapid Assist Console">
  <defs>
    <linearGradient id="hg" x1="0" y1="0" x2="1" y2="1">
      <stop offset="0" stop-color="#7A72FF"/>
      <stop offset="1" stop-color="#4B3FDE"/>
    </linearGradient>
  </defs>
  <svg x="16" y="23" width="64" height="64" viewBox="0 0 64 64">
    <rect x="2" y="2" width="60" height="60" rx="15" fill="url(#hg)"/>
    <path d="M21 15 H43 a9 9 0 0 1 9 9 V32 a9 9 0 0 1 -9 9 H30 l-8 8 v-8 h-1 a9 9 0 0 1 -9 -9 V24 a9 9 0 0 1 9 -9 Z" fill="#FFFFFF"/>
    <path d="M34 19 L25 30 h6.5 l-2.5 9 11 -13 h-6.5 z" fill="url(#hg)"/>
  </svg>
  <text x="98" y="55" font-family="-apple-system,Segoe UI,Roboto,Helvetica,Arial,sans-serif" font-size="38" font-weight="800" letter-spacing="0.5" fill="#1A1F36">RAC</text>
  <text x="100" y="76" font-family="-apple-system,Segoe UI,Roboto,Helvetica,Arial,sans-serif" font-size="12.5" font-weight="600" letter-spacing="3" fill="#6B7385">RAPID ASSIST CONSOLE</text>
</svg>
